<?xml version="1.0" encoding="utf-8" standalone="no"?>
<!DOCTYPE svg PUBLIC "-//W3C//DTD SVG 1.1//EN"
  "http://www.w3.org/Graphics/SVG/1.1/DTD/svg11.dtd">
<!-- Created with matplotlib (https://matplotlib.org/) -->
<svg height="345.6pt" version="1.1" viewBox="0 0 460.8 345.6" width="460.8pt" xmlns="http://www.w3.org/2000/svg" xmlns:xlink="http://www.w3.org/1999/xlink">
 <defs>
  <style type="text/css">
*{stroke-linecap:butt;stroke-linejoin:round;}
  </style>
 </defs>
 <g id="figure_1">
  <g id="patch_1">
   <path d="M 0 345.6 
L 460.8 345.6 
L 460.8 0 
L 0 0 
z
" style="fill:#ffffff;"/>
  </g>
  <g id="axes_1">
   <g id="patch_2">
    <path d="M 57.6 162.432 
L 219.927273 162.432 
L 219.927273 41.472 
L 57.6 41.472 
z
" style="fill:#ffffff;"/>
   </g>
   <g id="patch_3">
    <path clip-path="url(#pc20edcdd9a)" d="M 64.978512 162.432 
L 79.735537 162.432 
L 79.735537 85.632 
L 64.978512 85.632 
z
" style="fill:#1f77b4;"/>
   </g>
   <g id="patch_4">
    <path clip-path="url(#pc20edcdd9a)" d="M 79.735537 162.432 
L 94.492562 162.432 
L 94.492562 47.232 
L 79.735537 47.232 
z
" style="fill:#1f77b4;"/>
   </g>
   <g id="patch_5">
    <path clip-path="url(#pc20edcdd9a)" d="M 94.492562 162.432 
L 109.249587 162.432 
L 109.249587 85.632 
L 94.492562 85.632 
z
" style="fill:#1f77b4;"/>
   </g>
   <g id="patch_6">
    <path clip-path="url(#pc20edcdd9a)" d="M 109.249587 162.432 
L 124.006612 162.432 
L 124.006612 85.632 
L 109.249587 85.632 
z
" style="fill:#1f77b4;"/>
   </g>
   <g id="patch_7">
    <path clip-path="url(#pc20edcdd9a)" d="M 124.006612 162.432 
L 138.763636 162.432 
L 138.763636 47.232 
L 124.006612 47.232 
z
" style="fill:#1f77b4;"/>
   </g>
   <g id="patch_8">
    <path clip-path="url(#pc20edcdd9a)" d="M 138.763636 162.432 
L 153.520661 162.432 
L 153.520661 124.032 
L 138.763636 124.032 
z
" style="fill:#1f77b4;"/>
   </g>
   <g id="patch_9">
    <path clip-path="url(#pc20edcdd9a)" d="M 153.520661 162.432 
L 168.277686 162.432 
L 168.277686 85.632 
L 153.520661 85.632 
z
" style="fill:#1f77b4;"/>
   </g>
   <g id="patch_10">
    <path clip-path="url(#pc20edcdd9a)" d="M 168.277686 162.432 
L 183.034711 162.432 
L 183.034711 162.432 
L 168.277686 162.432 
z
" style="fill:#1f77b4;"/>
   </g>
   <g id="patch_11">
    <path clip-path="url(#pc20edcdd9a)" d="M 183.034711 162.432 
L 197.791736 162.432 
L 197.791736 85.632 
L 183.034711 85.632 
z
" style="fill:#1f77b4;"/>
   </g>
   <g id="patch_12">
    <path clip-path="url(#pc20edcdd9a)" d="M 197.791736 162.432 
L 212.54876 162.432 
L 212.54876 47.232 
L 197.791736 47.232 
z
" style="fill:#1f77b4;"/>
   </g>
   <g id="matplotlib.axis_1">
    <g id="xtick_1">
     <g id="line2d_1">
      <defs>
       <path d="M 0 0 
L 0 3.5 
" id="m75da7104e6" style="stroke:#000000;stroke-width:0.8;"/>
      </defs>
      <g>
       <use style="stroke:#000000;stroke-width:0.8;" x="64.30233" xlink:href="#m75da7104e6" y="162.432"/>
      </g>
     </g>
     <g id="text_1">
      <!-- 0.00 -->
      <defs>
       <path d="M 31.78125 66.40625 
Q 24.171875 66.40625 20.328125 58.90625 
Q 16.5 51.421875 16.5 36.375 
Q 16.5 21.390625 20.328125 13.890625 
Q 24.171875 6.390625 31.78125 6.390625 
Q 39.453125 6.390625 43.28125 13.890625 
Q 47.125 21.390625 47.125 36.375 
Q 47.125 51.421875 43.28125 58.90625 
Q 39.453125 66.40625 31.78125 66.40625 
z
M 31.78125 74.21875 
Q 44.046875 74.21875 50.515625 64.515625 
Q 56.984375 54.828125 56.984375 36.375 
Q 56.984375 17.96875 50.515625 8.265625 
Q 44.046875 -1.421875 31.78125 -1.421875 
Q 19.53125 -1.421875 13.0625 8.265625 
Q 6.59375 17.96875 6.59375 36.375 
Q 6.59375 54.828125 13.0625 64.515625 
Q 19.53125 74.21875 31.78125 74.21875 
z
" id="DejaVuSans-48"/>
       <path d="M 10.6875 12.40625 
L 21 12.40625 
L 21 0 
L 10.6875 0 
z
" id="DejaVuSans-46"/>
      </defs>
      <g transform="translate(53.169518 177.030437)scale(0.1 -0.1)">
       <use xlink:href="#DejaVuSans-48"/>
       <use x="63.623047" xlink:href="#DejaVuSans-46"/>
       <use x="95.410156" xlink:href="#DejaVuSans-48"/>
       <use x="159.033203" xlink:href="#DejaVuSans-48"/>
      </g>
     </g>
    </g>
    <g id="xtick_2">
     <g id="line2d_2">
      <g>
       <use style="stroke:#000000;stroke-width:0.8;" x="103.964132" xlink:href="#m75da7104e6" y="162.432"/>
      </g>
     </g>
     <g id="text_2">
      <!-- 0.25 -->
      <defs>
       <path d="M 19.1875 8.296875 
L 53.609375 8.296875 
L 53.609375 0 
L 7.328125 0 
L 7.328125 8.296875 
Q 12.9375 14.109375 22.625 23.890625 
Q 32.328125 33.6875 34.8125 36.53125 
Q 39.546875 41.84375 41.421875 45.53125 
Q 43.3125 49.21875 43.3125 52.78125 
Q 43.3125 58.59375 39.234375 62.25 
Q 35.15625 65.921875 28.609375 65.921875 
Q 23.96875 65.921875 18.8125 64.3125 
Q 13.671875 62.703125 7.8125 59.421875 
L 7.8125 69.390625 
Q 13.765625 71.78125 18.9375 73 
Q 24.125 74.21875 28.421875 74.21875 
Q 39.75 74.21875 46.484375 68.546875 
Q 53.21875 62.890625 53.21875 53.421875 
Q 53.21875 48.921875 51.53125 44.890625 
Q 49.859375 40.875 45.40625 35.40625 
Q 44.1875 33.984375 37.640625 27.21875 
Q 31.109375 20.453125 19.1875 8.296875 
z
" id="DejaVuSans-50"/>
       <path d="M 10.796875 72.90625 
L 49.515625 72.90625 
L 49.515625 64.59375 
L 19.828125 64.59375 
L 19.828125 46.734375 
Q 21.96875 47.46875 24.109375 47.828125 
Q 26.265625 48.1875 28.421875 48.1875 
Q 40.625 48.1875 47.75 41.5 
Q 54.890625 34.8125 54.890625 23.390625 
Q 54.890625 11.625 47.5625 5.09375 
Q 40.234375 -1.421875 26.90625 -1.421875 
Q 22.3125 -1.421875 17.546875 -0.640625 
Q 12.796875 0.140625 7.71875 1.703125 
L 7.71875 11.625 
Q 12.109375 9.234375 16.796875 8.0625 
Q 21.484375 6.890625 26.703125 6.890625 
Q 35.15625 6.890625 40.078125 11.328125 
Q 45.015625 15.765625 45.015625 23.390625 
Q 45.015625 31 40.078125 35.4375 
Q 35.15625 39.890625 26.703125 39.890625 
Q 22.75 39.890625 18.8125 39.015625 
Q 14.890625 38.140625 10.796875 36.28125 
z
" id="DejaVuSans-53"/>
      </defs>
      <g transform="translate(92.83132 177.030437)scale(0.1 -0.1)">
       <use xlink:href="#DejaVuSans-48"/>
       <use x="63.623047" xlink:href="#DejaVuSans-46"/>
       <use x="95.410156" xlink:href="#DejaVuSans-50"/>
       <use x="159.033203" xlink:href="#DejaVuSans-53"/>
      </g>
     </g>
    </g>
    <g id="xtick_3">
     <g id="line2d_3">
      <g>
       <use style="stroke:#000000;stroke-width:0.8;" x="143.625935" xlink:href="#m75da7104e6" y="162.432"/>
      </g>
     </g>
     <g id="text_3">
      <!-- 0.50 -->
      <g transform="translate(132.493122 177.030437)scale(0.1 -0.1)">
       <use xlink:href="#DejaVuSans-48"/>
       <use x="63.623047" xlink:href="#DejaVuSans-46"/>
       <use x="95.410156" xlink:href="#DejaVuSans-53"/>
       <use x="159.033203" xlink:href="#DejaVuSans-48"/>
      </g>
     </g>
    </g>
    <g id="xtick_4">
     <g id="line2d_4">
      <g>
       <use style="stroke:#000000;stroke-width:0.8;" x="183.287737" xlink:href="#m75da7104e6" y="162.432"/>
      </g>
     </g>
     <g id="text_4">
      <!-- 0.75 -->
      <defs>
       <path d="M 8.203125 72.90625 
L 55.078125 72.90625 
L 55.078125 68.703125 
L 28.609375 0 
L 18.3125 0 
L 43.21875 64.59375 
L 8.203125 64.59375 
z
" id="DejaVuSans-55"/>
      </defs>
      <g transform="translate(172.154924 177.030437)scale(0.1 -0.1)">
       <use xlink:href="#DejaVuSans-48"/>
       <use x="63.623047" xlink:href="#DejaVuSans-46"/>
       <use x="95.410156" xlink:href="#DejaVuSans-55"/>
       <use x="159.033203" xlink:href="#DejaVuSans-53"/>
      </g>
     </g>
    </g>
   </g>
   <g id="matplotlib.axis_2">
    <g id="ytick_1">
     <g id="line2d_5">
      <defs>
       <path d="M 0 0 
L -3.5 0 
" id="m88eb7b934f" style="stroke:#000000;stroke-width:0.8;"/>
      </defs>
      <g>
       <use style="stroke:#000000;stroke-width:0.8;" x="57.6" xlink:href="#m88eb7b934f" y="162.432"/>
      </g>
     </g>
     <g id="text_5">
      <!-- 0 -->
      <g transform="translate(44.2375 166.231219)scale(0.1 -0.1)">
       <use xlink:href="#DejaVuSans-48"/>
      </g>
     </g>
    </g>
    <g id="ytick_2">
     <g id="line2d_6">
      <g>
       <use style="stroke:#000000;stroke-width:0.8;" x="57.6" xlink:href="#m88eb7b934f" y="124.032"/>
      </g>
     </g>
     <g id="text_6">
      <!-- 1 -->
      <defs>
       <path d="M 12.40625 8.296875 
L 28.515625 8.296875 
L 28.515625 63.921875 
L 10.984375 60.40625 
L 10.984375 69.390625 
L 28.421875 72.90625 
L 38.28125 72.90625 
L 38.28125 8.296875 
L 54.390625 8.296875 
L 54.390625 0 
L 12.40625 0 
z
" id="DejaVuSans-49"/>
      </defs>
      <g transform="translate(44.2375 127.831219)scale(0.1 -0.1)">
       <use xlink:href="#DejaVuSans-49"/>
      </g>
     </g>
    </g>
    <g id="ytick_3">
     <g id="line2d_7">
      <g>
       <use style="stroke:#000000;stroke-width:0.8;" x="57.6" xlink:href="#m88eb7b934f" y="85.632"/>
      </g>
     </g>
     <g id="text_7">
      <!-- 2 -->
      <g transform="translate(44.2375 89.431219)scale(0.1 -0.1)">
       <use xlink:href="#DejaVuSans-50"/>
      </g>
     </g>
    </g>
    <g id="ytick_4">
     <g id="line2d_8">
      <g>
       <use style="stroke:#000000;stroke-width:0.8;" x="57.6" xlink:href="#m88eb7b934f" y="47.232"/>
      </g>
     </g>
     <g id="text_8">
      <!-- 3 -->
      <defs>
       <path d="M 40.578125 39.3125 
Q 47.65625 37.796875 51.625 33 
Q 55.609375 28.21875 55.609375 21.1875 
Q 55.609375 10.40625 48.1875 4.484375 
Q 40.765625 -1.421875 27.09375 -1.421875 
Q 22.515625 -1.421875 17.65625 -0.515625 
Q 12.796875 0.390625 7.625 2.203125 
L 7.625 11.71875 
Q 11.71875 9.328125 16.59375 8.109375 
Q 21.484375 6.890625 26.8125 6.890625 
Q 36.078125 6.890625 40.9375 10.546875 
Q 45.796875 14.203125 45.796875 21.1875 
Q 45.796875 27.640625 41.28125 31.265625 
Q 36.765625 34.90625 28.71875 34.90625 
L 20.21875 34.90625 
L 20.21875 43.015625 
L 29.109375 43.015625 
Q 36.375 43.015625 40.234375 45.921875 
Q 44.09375 48.828125 44.09375 54.296875 
Q 44.09375 59.90625 40.109375 62.90625 
Q 36.140625 65.921875 28.71875 65.921875 
Q 24.65625 65.921875 20.015625 65.03125 
Q 15.375 64.15625 9.8125 62.3125 
L 9.8125 71.09375 
Q 15.4375 72.65625 20.34375 73.4375 
Q 25.25 74.21875 29.59375 74.21875 
Q 40.828125 74.21875 47.359375 69.109375 
Q 53.90625 64.015625 53.90625 55.328125 
Q 53.90625 49.265625 50.4375 45.09375 
Q 46.96875 40.921875 40.578125 39.3125 
z
" id="DejaVuSans-51"/>
      </defs>
      <g transform="translate(44.2375 51.031219)scale(0.1 -0.1)">
       <use xlink:href="#DejaVuSans-51"/>
      </g>
     </g>
    </g>
   </g>
   <g id="patch_13">
    <path d="M 57.6 162.432 
L 57.6 41.472 
" style="fill:none;stroke:#000000;stroke-linecap:square;stroke-linejoin:miter;stroke-width:0.8;"/>
   </g>
   <g id="patch_14">
    <path d="M 219.927273 162.432 
L 219.927273 41.472 
" style="fill:none;stroke:#000000;stroke-linecap:square;stroke-linejoin:miter;stroke-width:0.8;"/>
   </g>
   <g id="patch_15">
    <path d="M 57.6 162.432 
L 219.927273 162.432 
" style="fill:none;stroke:#000000;stroke-linecap:square;stroke-linejoin:miter;stroke-width:0.8;"/>
   </g>
   <g id="patch_16">
    <path d="M 57.6 41.472 
L 219.927273 41.472 
" style="fill:none;stroke:#000000;stroke-linecap:square;stroke-linejoin:miter;stroke-width:0.8;"/>
   </g>
  </g>
  <g id="axes_2">
   <g id="patch_17">
    <path d="M 252.392727 162.432 
L 414.72 162.432 
L 414.72 41.472 
L 252.392727 41.472 
z
" style="fill:#ffffff;"/>
   </g>
   <g id="matplotlib.axis_3">
    <g id="xtick_5">
     <g id="line2d_9">
      <g>
       <use style="stroke:#000000;stroke-width:0.8;" x="259.77124" xlink:href="#m75da7104e6" y="162.432"/>
      </g>
     </g>
     <g id="text_9">
      <!-- 0.00 -->
      <g transform="translate(248.638427 177.030437)scale(0.1 -0.1)">
       <use xlink:href="#DejaVuSans-48"/>
       <use x="63.623047" xlink:href="#DejaVuSans-46"/>
       <use x="95.410156" xlink:href="#DejaVuSans-48"/>
       <use x="159.033203" xlink:href="#DejaVuSans-48"/>
      </g>
     </g>
    </g>
    <g id="xtick_6">
     <g id="line2d_10">
      <g>
       <use style="stroke:#000000;stroke-width:0.8;" x="296.663802" xlink:href="#m75da7104e6" y="162.432"/>
      </g>
     </g>
     <g id="text_10">
      <!-- 0.25 -->
      <g transform="translate(285.530989 177.030437)scale(0.1 -0.1)">
       <use xlink:href="#DejaVuSans-48"/>
       <use x="63.623047" xlink:href="#DejaVuSans-46"/>
       <use x="95.410156" xlink:href="#DejaVuSans-50"/>
       <use x="159.033203" xlink:href="#DejaVuSans-53"/>
      </g>
     </g>
    </g>
    <g id="xtick_7">
     <g id="line2d_11">
      <g>
       <use style="stroke:#000000;stroke-width:0.8;" x="333.556364" xlink:href="#m75da7104e6" y="162.432"/>
      </g>
     </g>
     <g id="text_11">
      <!-- 0.50 -->
      <g transform="translate(322.423551 177.030437)scale(0.1 -0.1)">
       <use xlink:href="#DejaVuSans-48"/>
       <use x="63.623047" xlink:href="#DejaVuSans-46"/>
       <use x="95.410156" xlink:href="#DejaVuSans-53"/>
       <use x="159.033203" xlink:href="#DejaVuSans-48"/>
      </g>
     </g>
    </g>
    <g id="xtick_8">
     <g id="line2d_12">
      <g>
       <use style="stroke:#000000;stroke-width:0.8;" x="370.448926" xlink:href="#m75da7104e6" y="162.432"/>
      </g>
     </g>
     <g id="text_12">
      <!-- 0.75 -->
      <g transform="translate(359.316113 177.030437)scale(0.1 -0.1)">
       <use xlink:href="#DejaVuSans-48"/>
       <use x="63.623047" xlink:href="#DejaVuSans-46"/>
       <use x="95.410156" xlink:href="#DejaVuSans-55"/>
       <use x="159.033203" xlink:href="#DejaVuSans-53"/>
      </g>
     </g>
    </g>
    <g id="xtick_9">
     <g id="line2d_13">
      <g>
       <use style="stroke:#000000;stroke-width:0.8;" x="407.341488" xlink:href="#m75da7104e6" y="162.432"/>
      </g>
     </g>
     <g id="text_13">
      <!-- 1.00 -->
      <g transform="translate(396.208675 177.030437)scale(0.1 -0.1)">
       <use xlink:href="#DejaVuSans-49"/>
       <use x="63.623047" xlink:href="#DejaVuSans-46"/>
       <use x="95.410156" xlink:href="#DejaVuSans-48"/>
       <use x="159.033203" xlink:href="#DejaVuSans-48"/>
      </g>
     </g>
    </g>
   </g>
   <g id="matplotlib.axis_4">
    <g id="ytick_5">
     <g id="line2d_14">
      <g>
       <use style="stroke:#000000;stroke-width:0.8;" x="252.392727" xlink:href="#m88eb7b934f" y="126.37273"/>
      </g>
     </g>
     <g id="text_14">
      <!-- 0.0 -->
      <g transform="translate(229.489602 130.171949)scale(0.1 -0.1)">
       <use xlink:href="#DejaVuSans-48"/>
       <use x="63.623047" xlink:href="#DejaVuSans-46"/>
       <use x="95.410156" xlink:href="#DejaVuSans-48"/>
      </g>
     </g>
    </g>
    <g id="ytick_6">
     <g id="line2d_15">
      <g>
       <use style="stroke:#000000;stroke-width:0.8;" x="252.392727" xlink:href="#m88eb7b934f" y="86.671456"/>
      </g>
     </g>
     <g id="text_15">
      <!-- 0.5 -->
      <g transform="translate(229.489602 90.470675)scale(0.1 -0.1)">
       <use xlink:href="#DejaVuSans-48"/>
       <use x="63.623047" xlink:href="#DejaVuSans-46"/>
       <use x="95.410156" xlink:href="#DejaVuSans-53"/>
      </g>
     </g>
    </g>
    <g id="ytick_7">
     <g id="line2d_16">
      <g>
       <use style="stroke:#000000;stroke-width:0.8;" x="252.392727" xlink:href="#m88eb7b934f" y="46.970182"/>
      </g>
     </g>
     <g id="text_16">
      <!-- 1.0 -->
      <g transform="translate(229.489602 50.769401)scale(0.1 -0.1)">
       <use xlink:href="#DejaVuSans-49"/>
       <use x="63.623047" xlink:href="#DejaVuSans-46"/>
       <use x="95.410156" xlink:href="#DejaVuSans-48"/>
      </g>
     </g>
    </g>
   </g>
   <g id="line2d_17">
    <path clip-path="url(#p1a4e2a1ccb)" d="M 259.77124 126.37273 
L 261.246942 126.36479 
L 262.722645 126.340969 
L 264.198347 126.301268 
L 265.67405 126.245686 
L 267.149752 126.174224 
L 268.625455 126.086881 
L 270.101157 125.983658 
L 271.57686 125.864554 
L 273.052562 125.72957 
L 274.528264 125.578705 
L 276.003967 125.411959 
L 277.479669 125.229333 
L 278.955372 125.030827 
L 280.431074 124.81644 
L 281.906777 124.586173 
L 283.382479 124.340025 
L 284.858182 124.077997 
L 286.333884 123.800088 
L 287.809587 123.506298 
L 289.285289 123.196628 
L 290.760992 122.871078 
L 292.236694 122.529647 
L 293.712397 122.172335 
L 295.188099 121.799143 
L 296.663802 121.410071 
L 298.139504 121.005118 
L 299.615207 120.584284 
L 301.090909 120.14757 
L 302.566612 119.694976 
L 304.042314 119.226501 
L 305.518017 118.742145 
L 306.993719 118.241909 
L 308.469421 117.725793 
L 309.945124 117.193796 
L 311.420826 116.645918 
L 312.896529 116.08216 
L 314.372231 115.502521 
L 315.847934 114.907002 
L 317.323636 114.295603 
L 318.799339 113.668322 
L 320.275041 113.025162 
L 321.750744 112.366121 
L 323.226446 111.691199 
L 324.702149 111.000397 
L 326.177851 110.293714 
L 327.653554 109.571151 
L 329.129256 108.832707 
L 330.604959 108.078383 
L 332.080661 107.308178 
L 333.556364 106.522093 
L 335.032066 105.720127 
L 336.507769 104.902281 
L 337.983471 104.068554 
L 339.459174 103.218947 
L 340.934876 102.353459 
L 342.410579 101.472091 
L 343.886281 100.574842 
L 345.361983 99.661713 
L 346.837686 98.732703 
L 348.313388 97.787813 
L 349.789091 96.827042 
L 351.264793 95.850391 
L 352.740496 94.857859 
L 354.216198 93.849446 
L 355.691901 92.825153 
L 357.167603 91.78498 
L 358.643306 90.728926 
L 360.119008 89.656992 
L 361.594711 88.569177 
L 363.070413 87.465481 
L 364.546116 86.345906 
L 366.021818 85.210449 
L 367.497521 84.059112 
L 368.973223 82.891895 
L 370.448926 81.708797 
L 371.924628 80.509818 
L 373.400331 79.294959 
L 374.876033 78.06422 
L 376.351736 76.8176 
L 377.827438 75.555099 
L 379.30314 74.276718 
L 380.778843 72.982457 
L 382.254545 71.672315 
L 383.730248 70.346292 
L 385.20595 69.004389 
L 386.681653 67.646605 
L 388.157355 66.272941 
L 389.633058 64.883397 
L 391.10876 63.477972 
L 392.584463 62.056666 
L 394.060165 60.61948 
L 395.535868 59.166413 
L 397.01157 57.697466 
L 398.487273 56.212638 
L 399.962975 54.71193 
L 401.438678 53.195342 
L 402.91438 51.662872 
L 404.390083 50.114523 
L 405.865785 48.550293 
L 407.341488 46.970182 
" style="fill:none;stroke:#1f77b4;stroke-linecap:square;stroke-width:1.5;"/>
   </g>
   <g id="line2d_18">
    <path clip-path="url(#p1a4e2a1ccb)" d="M 259.77124 126.37273 
L 261.246942 127.166676 
L 262.722645 127.960146 
L 264.198347 128.752663 
L 265.67405 129.54375 
L 267.149752 130.332932 
L 268.625455 131.119732 
L 270.101157 131.903673 
L 271.57686 132.68428 
L 273.052562 133.461075 
L 274.528264 134.233582 
L 276.003967 135.001326 
L 277.479669 135.763828 
L 278.955372 136.520614 
L 280.431074 137.271206 
L 281.906777 138.015129 
L 283.382479 138.751905 
L 284.858182 139.481059 
L 286.333884 140.202113 
L 287.809587 140.914592 
L 289.285289 141.618019 
L 290.760992 142.311918 
L 292.236694 142.995812 
L 293.712397 143.669225 
L 295.188099 144.331681 
L 296.663802 144.982702 
L 298.139504 145.621814 
L 299.615207 146.248538 
L 301.090909 146.862399 
L 302.566612 147.46292 
L 304.042314 148.049626 
L 305.518017 148.622039 
L 306.993719 149.179683 
L 308.469421 149.722082 
L 309.945124 150.248759 
L 311.420826 150.759238 
L 312.896529 151.253042 
L 314.372231 151.729696 
L 315.847934 152.188722 
L 317.323636 152.629644 
L 318.799339 153.051986 
L 320.275041 153.455272 
L 321.750744 153.839024 
L 323.226446 154.202768 
L 324.702149 154.546025 
L 326.177851 154.86832 
L 327.653554 155.169176 
L 329.129256 155.448117 
L 330.604959 155.704667 
L 332.080661 155.938348 
L 333.556364 156.148686 
L 335.032066 156.335202 
L 336.507769 156.497422 
L 337.983471 156.634868 
L 339.459174 156.747063 
L 340.934876 156.833533 
L 342.410579 156.893799 
L 343.886281 156.927387 
L 345.361983 156.933818 
L 346.837686 156.912618 
L 348.313388 156.863309 
L 349.789091 156.785415 
L 351.264793 156.67846 
L 352.740496 156.541967 
L 354.216198 156.375459 
L 355.691901 156.178462 
L 357.167603 155.950497 
L 358.643306 155.691089 
L 360.119008 155.399761 
L 361.594711 155.076037 
L 363.070413 154.71944 
L 364.546116 154.329494 
L 366.021818 153.905723 
L 367.497521 153.447649 
L 368.973223 152.954798 
L 370.448926 152.426691 
L 371.924628 151.862854 
L 373.400331 151.262809 
L 374.876033 150.62608 
L 376.351736 149.95219 
L 377.827438 149.240664 
L 379.30314 148.491025 
L 380.778843 147.702796 
L 382.254545 146.8755 
L 383.730248 146.008663 
L 385.20595 145.101806 
L 386.681653 144.154454 
L 388.157355 143.166131 
L 389.633058 142.136359 
L 391.10876 141.064663 
L 392.584463 139.950566 
L 394.060165 138.793591 
L 395.535868 137.593263 
L 397.01157 136.349105 
L 398.487273 135.060639 
L 399.962975 133.727391 
L 401.438678 132.348884 
L 402.91438 130.92464 
L 404.390083 129.454184 
L 405.865785 127.93704 
L 407.341488 126.37273 
" style="fill:none;stroke:#ff7f0e;stroke-linecap:square;stroke-width:1.5;"/>
   </g>
   <g id="patch_18">
    <path d="M 252.392727 162.432 
L 252.392727 41.472 
" style="fill:none;stroke:#000000;stroke-linecap:square;stroke-linejoin:miter;stroke-width:0.8;"/>
   </g>
   <g id="patch_19">
    <path d="M 414.72 162.432 
L 414.72 41.472 
" style="fill:none;stroke:#000000;stroke-linecap:square;stroke-linejoin:miter;stroke-width:0.8;"/>
   </g>
   <g id="patch_20">
    <path d="M 252.392727 162.432 
L 414.72 162.432 
" style="fill:none;stroke:#000000;stroke-linecap:square;stroke-linejoin:miter;stroke-width:0.8;"/>
   </g>
   <g id="patch_21">
    <path d="M 252.392727 41.472 
L 414.72 41.472 
" style="fill:none;stroke:#000000;stroke-linecap:square;stroke-linejoin:miter;stroke-width:0.8;"/>
   </g>
  </g>
  <g id="axes_3">
   <g id="patch_22">
    <path d="M 57.6 307.584 
L 219.927273 307.584 
L 219.927273 186.624 
L 57.6 186.624 
z
" style="fill:#ffffff;"/>
   </g>
   <g id="matplotlib.axis_5">
    <g id="xtick_10">
     <g id="line2d_19">
      <g>
       <use style="stroke:#000000;stroke-width:0.8;" x="62.485965" xlink:href="#m75da7104e6" y="307.584"/>
      </g>
     </g>
     <g id="text_17">
      <!-- 0.00 -->
      <g transform="translate(51.353152 322.182437)scale(0.1 -0.1)">
       <use xlink:href="#DejaVuSans-48"/>
       <use x="63.623047" xlink:href="#DejaVuSans-46"/>
       <use x="95.410156" xlink:href="#DejaVuSans-48"/>
       <use x="159.033203" xlink:href="#DejaVuSans-48"/>
      </g>
     </g>
    </g>
    <g id="xtick_11">
     <g id="line2d_20">
      <g>
       <use style="stroke:#000000;stroke-width:0.8;" x="100.275439" xlink:href="#m75da7104e6" y="307.584"/>
      </g>
     </g>
     <g id="text_18">
      <!-- 0.25 -->
      <g transform="translate(89.142627 322.182437)scale(0.1 -0.1)">
       <use xlink:href="#DejaVuSans-48"/>
       <use x="63.623047" xlink:href="#DejaVuSans-46"/>
       <use x="95.410156" xlink:href="#DejaVuSans-50"/>
       <use x="159.033203" xlink:href="#DejaVuSans-53"/>
      </g>
     </g>
    </g>
    <g id="xtick_12">
     <g id="line2d_21">
      <g>
       <use style="stroke:#000000;stroke-width:0.8;" x="138.064914" xlink:href="#m75da7104e6" y="307.584"/>
      </g>
     </g>
     <g id="text_19">
      <!-- 0.50 -->
      <g transform="translate(126.932102 322.182437)scale(0.1 -0.1)">
       <use xlink:href="#DejaVuSans-48"/>
       <use x="63.623047" xlink:href="#DejaVuSans-46"/>
       <use x="95.410156" xlink:href="#DejaVuSans-53"/>
       <use x="159.033203" xlink:href="#DejaVuSans-48"/>
      </g>
     </g>
    </g>
    <g id="xtick_13">
     <g id="line2d_22">
      <g>
       <use style="stroke:#000000;stroke-width:0.8;" x="175.854389" xlink:href="#m75da7104e6" y="307.584"/>
      </g>
     </g>
     <g id="text_20">
      <!-- 0.75 -->
      <g transform="translate(164.721577 322.182437)scale(0.1 -0.1)">
       <use xlink:href="#DejaVuSans-48"/>
       <use x="63.623047" xlink:href="#DejaVuSans-46"/>
       <use x="95.410156" xlink:href="#DejaVuSans-55"/>
       <use x="159.033203" xlink:href="#DejaVuSans-53"/>
      </g>
     </g>
    </g>
    <g id="xtick_14">
     <g id="line2d_23">
      <g>
       <use style="stroke:#000000;stroke-width:0.8;" x="213.643864" xlink:href="#m75da7104e6" y="307.584"/>
      </g>
     </g>
     <g id="text_21">
      <!-- 1.00 -->
      <g transform="translate(202.511052 322.182437)scale(0.1 -0.1)">
       <use xlink:href="#DejaVuSans-49"/>
       <use x="63.623047" xlink:href="#DejaVuSans-46"/>
       <use x="95.410156" xlink:href="#DejaVuSans-48"/>
       <use x="159.033203" xlink:href="#DejaVuSans-48"/>
      </g>
     </g>
    </g>
   </g>
   <g id="matplotlib.axis_6">
    <g id="ytick_8">
     <g id="line2d_24">
      <g>
       <use style="stroke:#000000;stroke-width:0.8;" x="57.6" xlink:href="#m88eb7b934f" y="303.821258"/>
      </g>
     </g>
     <g id="text_22">
      <!-- 0.0 -->
      <g transform="translate(34.696875 307.620477)scale(0.1 -0.1)">
       <use xlink:href="#DejaVuSans-48"/>
       <use x="63.623047" xlink:href="#DejaVuSans-46"/>
       <use x="95.410156" xlink:href="#DejaVuSans-48"/>
      </g>
     </g>
    </g>
    <g id="ytick_9">
     <g id="line2d_25">
      <g>
       <use style="stroke:#000000;stroke-width:0.8;" x="57.6" xlink:href="#m88eb7b934f" y="277.813714"/>
      </g>
     </g>
     <g id="text_23">
      <!-- 0.2 -->
      <g transform="translate(34.696875 281.612933)scale(0.1 -0.1)">
       <use xlink:href="#DejaVuSans-48"/>
       <use x="63.623047" xlink:href="#DejaVuSans-46"/>
       <use x="95.410156" xlink:href="#DejaVuSans-50"/>
      </g>
     </g>
    </g>
    <g id="ytick_10">
     <g id="line2d_26">
      <g>
       <use style="stroke:#000000;stroke-width:0.8;" x="57.6" xlink:href="#m88eb7b934f" y="251.806171"/>
      </g>
     </g>
     <g id="text_24">
      <!-- 0.4 -->
      <defs>
       <path d="M 37.796875 64.3125 
L 12.890625 25.390625 
L 37.796875 25.390625 
z
M 35.203125 72.90625 
L 47.609375 72.90625 
L 47.609375 25.390625 
L 58.015625 25.390625 
L 58.015625 17.1875 
L 47.609375 17.1875 
L 47.609375 0 
L 37.796875 0 
L 37.796875 17.1875 
L 4.890625 17.1875 
L 4.890625 26.703125 
z
" id="DejaVuSans-52"/>
      </defs>
      <g transform="translate(34.696875 255.60539)scale(0.1 -0.1)">
       <use xlink:href="#DejaVuSans-48"/>
       <use x="63.623047" xlink:href="#DejaVuSans-46"/>
       <use x="95.410156" xlink:href="#DejaVuSans-52"/>
      </g>
     </g>
    </g>
    <g id="ytick_11">
     <g id="line2d_27">
      <g>
       <use style="stroke:#000000;stroke-width:0.8;" x="57.6" xlink:href="#m88eb7b934f" y="225.798628"/>
      </g>
     </g>
     <g id="text_25">
      <!-- 0.6 -->
      <defs>
       <path d="M 33.015625 40.375 
Q 26.375 40.375 22.484375 35.828125 
Q 18.609375 31.296875 18.609375 23.390625 
Q 18.609375 15.53125 22.484375 10.953125 
Q 26.375 6.390625 33.015625 6.390625 
Q 39.65625 6.390625 43.53125 10.953125 
Q 47.40625 15.53125 47.40625 23.390625 
Q 47.40625 31.296875 43.53125 35.828125 
Q 39.65625 40.375 33.015625 40.375 
z
M 52.59375 71.296875 
L 52.59375 62.3125 
Q 48.875 64.0625 45.09375 64.984375 
Q 41.3125 65.921875 37.59375 65.921875 
Q 27.828125 65.921875 22.671875 59.328125 
Q 17.53125 52.734375 16.796875 39.40625 
Q 19.671875 43.65625 24.015625 45.921875 
Q 28.375 48.1875 33.59375 48.1875 
Q 44.578125 48.1875 50.953125 41.515625 
Q 57.328125 34.859375 57.328125 23.390625 
Q 57.328125 12.15625 50.6875 5.359375 
Q 44.046875 -1.421875 33.015625 -1.421875 
Q 20.359375 -1.421875 13.671875 8.265625 
Q 6.984375 17.96875 6.984375 36.375 
Q 6.984375 53.65625 15.1875 63.9375 
Q 23.390625 74.21875 37.203125 74.21875 
Q 40.921875 74.21875 44.703125 73.484375 
Q 48.484375 72.75 52.59375 71.296875 
z
" id="DejaVuSans-54"/>
      </defs>
      <g transform="translate(34.696875 229.597846)scale(0.1 -0.1)">
       <use xlink:href="#DejaVuSans-48"/>
       <use x="63.623047" xlink:href="#DejaVuSans-46"/>
       <use x="95.410156" xlink:href="#DejaVuSans-54"/>
      </g>
     </g>
    </g>
    <g id="ytick_12">
     <g id="line2d_28">
      <g>
       <use style="stroke:#000000;stroke-width:0.8;" x="57.6" xlink:href="#m88eb7b934f" y="199.791084"/>
      </g>
     </g>
     <g id="text_26">
      <!-- 0.8 -->
      <defs>
       <path d="M 31.78125 34.625 
Q 24.75 34.625 20.71875 30.859375 
Q 16.703125 27.09375 16.703125 20.515625 
Q 16.703125 13.921875 20.71875 10.15625 
Q 24.75 6.390625 31.78125 6.390625 
Q 38.8125 6.390625 42.859375 10.171875 
Q 46.921875 13.96875 46.921875 20.515625 
Q 46.921875 27.09375 42.890625 30.859375 
Q 38.875 34.625 31.78125 34.625 
z
M 21.921875 38.8125 
Q 15.578125 40.375 12.03125 44.71875 
Q 8.5 49.078125 8.5 55.328125 
Q 8.5 64.0625 14.71875 69.140625 
Q 20.953125 74.21875 31.78125 74.21875 
Q 42.671875 74.21875 48.875 69.140625 
Q 55.078125 64.0625 55.078125 55.328125 
Q 55.078125 49.078125 51.53125 44.71875 
Q 48 40.375 41.703125 38.8125 
Q 48.828125 37.15625 52.796875 32.3125 
Q 56.78125 27.484375 56.78125 20.515625 
Q 56.78125 9.90625 50.3125 4.234375 
Q 43.84375 -1.421875 31.78125 -1.421875 
Q 19.734375 -1.421875 13.25 4.234375 
Q 6.78125 9.90625 6.78125 20.515625 
Q 6.78125 27.484375 10.78125 32.3125 
Q 14.796875 37.15625 21.921875 38.8125 
z
M 18.3125 54.390625 
Q 18.3125 48.734375 21.84375 45.5625 
Q 25.390625 42.390625 31.78125 42.390625 
Q 38.140625 42.390625 41.71875 45.5625 
Q 45.3125 48.734375 45.3125 54.390625 
Q 45.3125 60.0625 41.71875 63.234375 
Q 38.140625 66.40625 31.78125 66.40625 
Q 25.390625 66.40625 21.84375 63.234375 
Q 18.3125 60.0625 18.3125 54.390625 
z
" id="DejaVuSans-56"/>
      </defs>
      <g transform="translate(34.696875 203.590303)scale(0.1 -0.1)">
       <use xlink:href="#DejaVuSans-48"/>
       <use x="63.623047" xlink:href="#DejaVuSans-46"/>
       <use x="95.410156" xlink:href="#DejaVuSans-56"/>
      </g>
     </g>
    </g>
   </g>
   <g id="line2d_29">
    <defs>
     <path d="M 0 -3 
L -0.673542 -0.927051 
L -2.85317 -0.927051 
L -1.089814 0.354102 
L -1.763356 2.427051 
L -0 1.145898 
L 1.763356 2.427051 
L 1.089814 0.354102 
L 2.85317 -0.927051 
L 0.673542 -0.927051 
z
" id="m985257fd90" style="stroke:#ff0000;stroke-linejoin:bevel;"/>
    </defs>
    <g clip-path="url(#p88292994fd)">
     <use style="fill:#ff0000;stroke:#ff0000;stroke-linejoin:bevel;" x="143.931634" xlink:href="#m985257fd90" y="192.122182"/>
     <use style="fill:#ff0000;stroke:#ff0000;stroke-linejoin:bevel;" x="212.536616" xlink:href="#m985257fd90" y="261.890707"/>
     <use style="fill:#ff0000;stroke:#ff0000;stroke-linejoin:bevel;" x="66.57319" xlink:href="#m985257fd90" y="245.395548"/>
     <use style="fill:#ff0000;stroke:#ff0000;stroke-linejoin:bevel;" x="188.595148" xlink:href="#m985257fd90" y="281.869388"/>
     <use style="fill:#ff0000;stroke:#ff0000;stroke-linejoin:bevel;" x="149.678529" xlink:href="#m985257fd90" y="244.160414"/>
     <use style="fill:#ff0000;stroke:#ff0000;stroke-linejoin:bevel;" x="199.231915" xlink:href="#m985257fd90" y="207.55936"/>
     <use style="fill:#ff0000;stroke:#ff0000;stroke-linejoin:bevel;" x="121.526517" xlink:href="#m985257fd90" y="280.344193"/>
     <use style="fill:#ff0000;stroke:#ff0000;stroke-linejoin:bevel;" x="154.665514" xlink:href="#m985257fd90" y="220.029976"/>
     <use style="fill:#ff0000;stroke:#ff0000;stroke-linejoin:bevel;" x="151.901503" xlink:href="#m985257fd90" y="195.607743"/>
     <use style="fill:#ff0000;stroke:#ff0000;stroke-linejoin:bevel;" x="79.613243" xlink:href="#m985257fd90" y="268.265309"/>
     <use style="fill:#ff0000;stroke:#ff0000;stroke-linejoin:bevel;" x="178.549485" xlink:href="#m985257fd90" y="262.105318"/>
     <use style="fill:#ff0000;stroke:#ff0000;stroke-linejoin:bevel;" x="195.374772" xlink:href="#m985257fd90" y="282.804923"/>
     <use style="fill:#ff0000;stroke:#ff0000;stroke-linejoin:bevel;" x="64.978512" xlink:href="#m985257fd90" y="302.085818"/>
     <use style="fill:#ff0000;stroke:#ff0000;stroke-linejoin:bevel;" x="83.205163" xlink:href="#m985257fd90" y="280.740336"/>
     <use style="fill:#ff0000;stroke:#ff0000;stroke-linejoin:bevel;" x="201.957369" xlink:href="#m985257fd90" y="290.628614"/>
     <use style="fill:#ff0000;stroke:#ff0000;stroke-linejoin:bevel;" x="191.099377" xlink:href="#m985257fd90" y="296.483811"/>
     <use style="fill:#ff0000;stroke:#ff0000;stroke-linejoin:bevel;" x="212.54876" xlink:href="#m985257fd90" y="279.251391"/>
     <use style="fill:#ff0000;stroke:#ff0000;stroke-linejoin:bevel;" x="70.500168" xlink:href="#m985257fd90" y="283.03823"/>
     <use style="fill:#ff0000;stroke:#ff0000;stroke-linejoin:bevel;" x="160.635033" xlink:href="#m985257fd90" y="294.363503"/>
     <use style="fill:#ff0000;stroke:#ff0000;stroke-linejoin:bevel;" x="202.392862" xlink:href="#m985257fd90" y="201.191187"/>
    </g>
   </g>
   <g id="patch_23">
    <path d="M 57.6 307.584 
L 57.6 186.624 
" style="fill:none;stroke:#000000;stroke-linecap:square;stroke-linejoin:miter;stroke-width:0.8;"/>
   </g>
   <g id="patch_24">
    <path d="M 219.927273 307.584 
L 219.927273 186.624 
" style="fill:none;stroke:#000000;stroke-linecap:square;stroke-linejoin:miter;stroke-width:0.8;"/>
   </g>
   <g id="patch_25">
    <path d="M 57.6 307.584 
L 219.927273 307.584 
" style="fill:none;stroke:#000000;stroke-linecap:square;stroke-linejoin:miter;stroke-width:0.8;"/>
   </g>
   <g id="patch_26">
    <path d="M 57.6 186.624 
L 219.927273 186.624 
" style="fill:none;stroke:#000000;stroke-linecap:square;stroke-linejoin:miter;stroke-width:0.8;"/>
   </g>
  </g>
  <g id="axes_4">
   <g id="patch_27">
    <path d="M 252.392727 307.584 
L 414.72 307.584 
L 414.72 186.624 
L 252.392727 186.624 
z
" style="fill:#ffffff;"/>
   </g>
   <g id="matplotlib.axis_7">
    <g id="xtick_15">
     <g id="line2d_30">
      <g>
       <use style="stroke:#000000;stroke-width:0.8;" x="254.85956" xlink:href="#m75da7104e6" y="307.584"/>
      </g>
     </g>
     <g id="text_27">
      <!-- −1.0 -->
      <defs>
       <path d="M 10.59375 35.5 
L 73.1875 35.5 
L 73.1875 27.203125 
L 10.59375 27.203125 
z
" id="DejaVuSans-8722"/>
      </defs>
      <g transform="translate(242.718154 322.182437)scale(0.1 -0.1)">
       <use xlink:href="#DejaVuSans-8722"/>
       <use x="83.789062" xlink:href="#DejaVuSans-49"/>
       <use x="147.412109" xlink:href="#DejaVuSans-46"/>
       <use x="179.199219" xlink:href="#DejaVuSans-48"/>
      </g>
     </g>
    </g>
    <g id="xtick_16">
     <g id="line2d_31">
      <g>
       <use style="stroke:#000000;stroke-width:0.8;" x="301.47192" xlink:href="#m75da7104e6" y="307.584"/>
      </g>
     </g>
     <g id="text_28">
      <!-- −0.5 -->
      <g transform="translate(289.330514 322.182437)scale(0.1 -0.1)">
       <use xlink:href="#DejaVuSans-8722"/>
       <use x="83.789062" xlink:href="#DejaVuSans-48"/>
       <use x="147.412109" xlink:href="#DejaVuSans-46"/>
       <use x="179.199219" xlink:href="#DejaVuSans-53"/>
      </g>
     </g>
    </g>
    <g id="xtick_17">
     <g id="line2d_32">
      <g>
       <use style="stroke:#000000;stroke-width:0.8;" x="348.08428" xlink:href="#m75da7104e6" y="307.584"/>
      </g>
     </g>
     <g id="text_29">
      <!-- 0.0 -->
      <g transform="translate(340.132718 322.182437)scale(0.1 -0.1)">
       <use xlink:href="#DejaVuSans-48"/>
       <use x="63.623047" xlink:href="#DejaVuSans-46"/>
       <use x="95.410156" xlink:href="#DejaVuSans-48"/>
      </g>
     </g>
    </g>
    <g id="xtick_18">
     <g id="line2d_33">
      <g>
       <use style="stroke:#000000;stroke-width:0.8;" x="394.696641" xlink:href="#m75da7104e6" y="307.584"/>
      </g>
     </g>
     <g id="text_30">
      <!-- 0.5 -->
      <g transform="translate(386.745078 322.182437)scale(0.1 -0.1)">
       <use xlink:href="#DejaVuSans-48"/>
       <use x="63.623047" xlink:href="#DejaVuSans-46"/>
       <use x="95.410156" xlink:href="#DejaVuSans-53"/>
      </g>
     </g>
    </g>
   </g>
   <g id="matplotlib.axis_8">
    <g id="ytick_13">
     <g id="line2d_34">
      <g>
       <use style="stroke:#000000;stroke-width:0.8;" x="252.392727" xlink:href="#m88eb7b934f" y="298.461188"/>
      </g>
     </g>
     <g id="text_31">
      <!-- −0.50 -->
      <g transform="translate(214.747415 302.260407)scale(0.1 -0.1)">
       <use xlink:href="#DejaVuSans-8722"/>
       <use x="83.789062" xlink:href="#DejaVuSans-48"/>
       <use x="147.412109" xlink:href="#DejaVuSans-46"/>
       <use x="179.199219" xlink:href="#DejaVuSans-53"/>
       <use x="242.822266" xlink:href="#DejaVuSans-48"/>
      </g>
     </g>
    </g>
    <g id="ytick_14">
     <g id="line2d_35">
      <g>
       <use style="stroke:#000000;stroke-width:0.8;" x="252.392727" xlink:href="#m88eb7b934f" y="277.876575"/>
      </g>
     </g>
     <g id="text_32">
      <!-- −0.25 -->
      <g transform="translate(214.747415 281.675794)scale(0.1 -0.1)">
       <use xlink:href="#DejaVuSans-8722"/>
       <use x="83.789062" xlink:href="#DejaVuSans-48"/>
       <use x="147.412109" xlink:href="#DejaVuSans-46"/>
       <use x="179.199219" xlink:href="#DejaVuSans-50"/>
       <use x="242.822266" xlink:href="#DejaVuSans-53"/>
      </g>
     </g>
    </g>
    <g id="ytick_15">
     <g id="line2d_36">
      <g>
       <use style="stroke:#000000;stroke-width:0.8;" x="252.392727" xlink:href="#m88eb7b934f" y="257.291962"/>
      </g>
     </g>
     <g id="text_33">
      <!-- 0.00 -->
      <g transform="translate(223.127102 261.091181)scale(0.1 -0.1)">
       <use xlink:href="#DejaVuSans-48"/>
       <use x="63.623047" xlink:href="#DejaVuSans-46"/>
       <use x="95.410156" xlink:href="#DejaVuSans-48"/>
       <use x="159.033203" xlink:href="#DejaVuSans-48"/>
      </g>
     </g>
    </g>
    <g id="ytick_16">
     <g id="line2d_37">
      <g>
       <use style="stroke:#000000;stroke-width:0.8;" x="252.392727" xlink:href="#m88eb7b934f" y="236.70735"/>
      </g>
     </g>
     <g id="text_34">
      <!-- 0.25 -->
      <g transform="translate(223.127102 240.506568)scale(0.1 -0.1)">
       <use xlink:href="#DejaVuSans-48"/>
       <use x="63.623047" xlink:href="#DejaVuSans-46"/>
       <use x="95.410156" xlink:href="#DejaVuSans-50"/>
       <use x="159.033203" xlink:href="#DejaVuSans-53"/>
      </g>
     </g>
    </g>
    <g id="ytick_17">
     <g id="line2d_38">
      <g>
       <use style="stroke:#000000;stroke-width:0.8;" x="252.392727" xlink:href="#m88eb7b934f" y="216.122737"/>
      </g>
     </g>
     <g id="text_35">
      <!-- 0.50 -->
      <g transform="translate(223.127102 219.921956)scale(0.1 -0.1)">
       <use xlink:href="#DejaVuSans-48"/>
       <use x="63.623047" xlink:href="#DejaVuSans-46"/>
       <use x="95.410156" xlink:href="#DejaVuSans-53"/>
       <use x="159.033203" xlink:href="#DejaVuSans-48"/>
      </g>
     </g>
    </g>
    <g id="ytick_18">
     <g id="line2d_39">
      <g>
       <use style="stroke:#000000;stroke-width:0.8;" x="252.392727" xlink:href="#m88eb7b934f" y="195.538124"/>
      </g>
     </g>
     <g id="text_36">
      <!-- 0.75 -->
      <g transform="translate(223.127102 199.337343)scale(0.1 -0.1)">
       <use xlink:href="#DejaVuSans-48"/>
       <use x="63.623047" xlink:href="#DejaVuSans-46"/>
       <use x="95.410156" xlink:href="#DejaVuSans-55"/>
       <use x="159.033203" xlink:href="#DejaVuSans-53"/>
      </g>
     </g>
    </g>
   </g>
   <g id="line2d_40">
    <path clip-path="url(#p7ddf1fcefe)" d="M 348.08428 257.291962 
L 349.01187 257.209761 
L 349.911609 256.9648 
L 350.75611 256.561982 
L 351.518906 256.009398 
L 352.1749 255.318205 
L 352.700781 254.502455 
L 353.075434 253.57889 
L 353.280303 252.566683 
L 353.299728 251.487149 
L 353.121233 250.363421 
L 352.735781 249.220093 
L 352.137964 248.082844 
L 351.326156 246.978037 
L 350.3026 245.932306 
L 349.073449 244.972134 
L 347.648742 244.123428 
L 346.042327 243.411098 
L 344.271727 242.858643 
L 342.35795 242.487755 
L 340.325246 242.317934 
L 338.200812 242.366145 
L 336.014453 242.646487 
L 333.798199 243.169914 
L 331.585883 243.94398 
L 329.412683 244.972645 
L 327.314645 246.25611 
L 325.328175 247.790717 
L 323.489524 249.568889 
L 321.834262 251.579131 
L 320.396748 253.806082 
L 319.209611 256.230619 
L 318.30324 258.830022 
L 317.705297 261.578179 
L 317.440253 264.445854 
L 317.528961 267.400994 
L 317.988261 270.409084 
L 318.830642 273.433541 
L 320.063938 276.436146 
L 321.691094 279.377507 
L 323.709983 282.217541 
L 326.113282 284.915987 
L 328.888421 287.432926 
L 332.017592 289.729307 
L 335.477831 291.767476 
L 339.24116 293.511705 
L 343.274802 294.928692 
L 347.541463 295.988065 
L 351.999673 296.662835 
L 356.604186 296.929839 
L 361.306444 296.770132 
L 366.055084 296.169337 
L 370.796495 295.117952 
L 375.475418 293.611597 
L 380.035576 291.651207 
L 384.420328 289.243166 
L 388.573351 286.399372 
L 392.439324 283.137241 
L 395.96462 279.479644 
L 399.097992 275.454774 
L 401.791244 271.095946 
L 403.999885 266.441339 
L 405.683743 261.533663 
L 406.807552 256.419771 
L 407.341488 251.150215 
L 407.261651 245.778742 
L 406.550491 240.361752 
L 405.197166 234.957703 
L 403.19783 229.626483 
L 400.555844 224.428757 
L 397.281909 219.425281 
L 393.394117 214.676213 
L 388.917915 210.240407 
L 383.885984 206.174709 
L 378.338035 202.53327 
L 372.320516 199.366863 
L 365.886238 196.722237 
L 359.093922 194.641496 
L 352.007664 193.161523 
L 344.696337 192.313449 
L 337.23292 192.122182 
L 329.693768 192.60599 
L 322.157834 193.776159 
L 314.705842 195.636714 
L 307.419427 198.184228 
L 300.380248 201.407699 
L 293.669082 205.28852 
L 287.364915 209.800525 
L 281.544031 214.910128 
L 276.27912 220.576542 
L 271.638403 226.752084 
L 267.684796 233.382563 
L 264.475118 240.407745 
L 262.059347 247.761895 
L 260.479942 255.37439 
L 259.77124 263.170398 
L 259.95892 271.071608 
L 261.059569 278.997021 
L 263.080326 286.86378 
L 266.01863 294.588031 
L 269.862072 302.085818 
" style="fill:none;stroke:#1f77b4;stroke-linecap:square;stroke-width:1.5;"/>
   </g>
   <g id="patch_28">
    <path d="M 252.392727 307.584 
L 252.392727 186.624 
" style="fill:none;stroke:#000000;stroke-linecap:square;stroke-linejoin:miter;stroke-width:0.8;"/>
   </g>
   <g id="patch_29">
    <path d="M 414.72 307.584 
L 414.72 186.624 
" style="fill:none;stroke:#000000;stroke-linecap:square;stroke-linejoin:miter;stroke-width:0.8;"/>
   </g>
   <g id="patch_30">
    <path d="M 252.392727 307.584 
L 414.72 307.584 
" style="fill:none;stroke:#000000;stroke-linecap:square;stroke-linejoin:miter;stroke-width:0.8;"/>
   </g>
   <g id="patch_31">
    <path d="M 252.392727 186.624 
L 414.72 186.624 
" style="fill:none;stroke:#000000;stroke-linecap:square;stroke-linejoin:miter;stroke-width:0.8;"/>
   </g>
  </g>
 </g>
 <defs>
  <clipPath id="pc20edcdd9a">
   <rect height="120.96" width="162.327273" x="57.6" y="41.472"/>
  </clipPath>
  <clipPath id="p1a4e2a1ccb">
   <rect height="120.96" width="162.327273" x="252.392727" y="41.472"/>
  </clipPath>
  <clipPath id="p88292994fd">
   <rect height="120.96" width="162.327273" x="57.6" y="186.624"/>
  </clipPath>
  <clipPath id="p7ddf1fcefe">
   <rect height="120.96" width="162.327273" x="252.392727" y="186.624"/>
  </clipPath>
 </defs>
</svg>
